Coordinates
version=1
nRows=23
nColumns=23
inDegrees=yes

Units are S.I. units (second, meters, Newtons, ...)
If the header above contains a line with 'inDegrees', this indicates whether rotational values are in degrees (yes) or radians (no).

endheader
time	pelvis_tilt	pelvis_list	pelvis_rotation	pelvis_tx	pelvis_ty	pelvis_tz	hip_flexion_r	hip_adduction_r	hip_rotation_r	knee_angle_r	knee_angle_r_beta	ankle_angle_r	subtalar_angle_r	mtp_angle_r	hip_flexion_l	hip_adduction_l	hip_rotation_l	knee_angle_l	knee_angle_l_beta	ankle_angle_l	subtalar_angle_l	mtp_angle_l
     22.50000000	    -11.38232742	     -0.61226309	      1.32567688	      2.25201401	      0.99833700	      1.02860235	     37.61319692	      1.76126538	     -4.98791217	     24.27186600	      0.42362398	      3.87000385	     -3.77566953	      0.00000000	     -3.48920667	     -1.35292869	     -0.87866810	     76.27747245	      1.33129304	     -6.28591000	    -14.60653351	      0.00000000
     22.50666667	    -11.05628524	     -0.69967527	      0.94761587	      2.24967471	      0.99265137	      1.02893452	     38.09536156	      1.96522071	     -4.74952885	     27.87286173	      0.48647321	      3.75906237	     -4.86511850	      0.00000000	     -2.34220089	     -1.41723042	     -0.81260601	     80.75533660	      1.40944651	     -6.00440120	    -13.75037452	      0.00000000
     22.51333333	    -10.69756913	     -0.84807300	      0.53439434	      2.24724184	      0.98684945	      1.02930544	     38.44733151	      2.27977856	     -4.40694455	     31.44581472	      0.54883300	      4.18190111	     -5.93237125	      0.00000000	     -1.18346203	     -1.57560487	     -0.81277328	     85.09615654	      1.48520811	     -5.58882322	    -12.80776868	      0.00000000
     22.52000000	    -10.39897870	     -1.07808687	      0.10118781	      2.24471501	      0.98097040	      1.02971418	     38.73491341	      2.72311551	     -3.98953684	     34.88986621	      0.60894304	      5.11951303	     -6.95417730	      0.00000000	      0.09588164	     -1.88653683	     -0.88264198	     89.30181939	      1.55861078	     -5.00109943	    -11.76030713	      0.00000000
     22.52666667	    -10.21772978	     -1.39770823	     -0.33146188	      2.24207770	      0.97514440	      1.03021332	     38.95569309	      3.30729215	     -3.52934139	     38.04715723	      0.66404816	      6.41058731	     -7.87391754	      0.00000000	      1.58312943	     -2.36039780	     -0.96303896	     93.36966084	      1.62960800	     -4.26913787	    -10.61636461	      0.00000000
     22.53333333	     -9.78988109	     -1.88562097	     -0.69690537	      2.23954559	      0.97013569	      1.03065953	     38.64029289	      4.05372201	     -3.14199848	     40.78571620	      0.71184504	      8.13995146	     -8.70577440	      0.00000000	      2.84853057	     -3.04615889	     -0.94948804	     97.16516756	      1.69585209	     -3.62950795	     -9.92747025	      0.00000000
     22.54000000	    -10.18794292	     -2.28912150	     -1.10222061	      2.23667319	      0.96434008	      1.03137155	     39.08519209	      4.78288486	     -2.69917776	     43.30689769	      0.75584795	      9.80449423	     -9.25330260	      0.00000000	      5.17553327	     -3.74599409	     -0.93398412	    100.94029069	      1.76174042	     -2.42166798	     -8.10486134	      0.00000000
     22.54666667	    -10.23011090	     -2.84506670	     -1.38489885	      2.23396077	      0.95980160	      1.03193679	     38.81971153	      5.60373894	     -2.40141313	     45.28744980	      0.79041511	     11.74467411	     -9.71193044	      0.00000000	      7.19262898	     -4.61217544	     -0.73802763	    104.37671322	      1.82171731	     -1.49330594	     -7.01176044	      0.00000000
     22.55333333	    -10.23219822	     -3.42516394	     -1.57338424	      2.23139161	      0.95609507	      1.03245433	     38.23933091	      6.40686735	     -2.18301277	     46.82194897	      0.81719717	     13.74007815	    -10.05207006	      0.00000000	      9.27116690	     -5.50449793	     -0.38821217	    107.49375278	      1.87611991	     -0.64623184	     -6.12623298	      0.00000000
     22.56000000	    -10.72405259	     -3.93123688	     -1.66372503	      2.22859661	      0.95240897	      1.03296564	     38.01463075	      7.03169142	     -2.16475801	     48.05104437	      0.83864893	     15.53039216	    -10.02955548	      0.00000000	     12.09949860	     -6.36260192	      0.11712791	    110.44474692	      1.92762448	      0.48957544	     -4.50876325	      0.00000000
     22.56666667	    -11.00174380	     -4.41833846	     -1.63360450	      2.22606350	      0.94981521	      1.03335349	     37.29939844	      7.57241322	     -2.21602686	     48.84718705	      0.85254424	     17.31147818	     -9.89669045	      0.00000000	     14.78893911	     -7.14112871	      0.75229683	    112.98492114	      1.97195888	      1.39968640	     -3.29628949	      0.00000000
     22.57333333	    -11.23040199	     -4.82907243	     -1.48974117	      2.22365274	      0.94806012	      1.03359952	     36.32564663	      7.95371021	     -2.36504035	     49.28709349	      0.86022206	     19.00484170	     -9.60018706	      0.00000000	     17.55834720	     -7.76645402	      1.47828843	    115.14751678	      2.00970329	      2.24439536	     -2.14531313	      0.00000000
     22.58000000	    -11.39535712	     -5.11158991	     -1.25703621	      2.22138670	      0.94706511	      1.03370177	     35.11357801	      8.13502603	     -2.58474563	     49.43971354	      0.86288578	     20.58408669	     -9.13090946	      0.00000000	     20.35007236	     -8.17409501	      2.20073883	    116.90655267	      2.04040426	      3.00566534	     -1.08525453	      0.00000000
     22.58666667	    -11.48264202	     -5.30531352	     -0.95618538	      2.21933373	      0.94684068	      1.03365853	     33.63515347	      8.18526115	     -2.84302967	     49.26993229	      0.85992254	     22.00049873	     -8.57462242	      0.00000000	     23.10705578	     -8.40122229	      2.86939338	    118.24002490	      2.06367774	      3.69386130	     -0.15537956	      0.00000000
     22.59333333	    -11.58515555	     -5.35407577	     -0.64125797	      2.21742436	      0.94718621	      1.03354612	     32.03832354	      8.05666140	     -3.13876101	     48.85715396	      0.85271820	     23.28872506	     -7.78351973	      0.00000000	     25.88983367	     -8.41500931	      3.37299557	    119.15249216	      2.07960330	      4.36397722	      0.73825451	      0.00000000
     22.60000000	    -11.64672135	     -5.31529176	     -0.31803746	      2.21572523	      0.94814424	      1.03334331	     30.24860905	      7.85635834	     -3.38553065	     48.17181739	      0.84075682	     24.34246678	     -7.07713514	      0.00000000	     28.59066829	     -8.27101117	      3.70915523	    119.64354345	      2.08817376	      4.97171948	      1.40484724	      0.00000000
     22.60666667	    -11.79465193	     -5.16649958	     -0.03785906	      2.21421040	      0.94952087	      1.03313746	     28.43515977	      7.55238469	     -3.62157015	     47.25671487	      0.82478527	     25.16053912	     -6.17286677	      0.00000000	     31.29725394	     -8.00854212	      3.80245888	    119.71322273	      2.08938989	      5.60709201	      2.07169268	      0.00000000
     22.61333333	    -11.97606983	     -4.97412094	      0.23070125	      2.21287423	      0.95133790	      1.03287288	     26.54503962	      7.22422118	     -3.82808110	     46.10489120	      0.80468215	     25.71766133	     -5.46494860	      0.00000000	     33.94193774	     -7.66599190	      3.72782558	    119.39429632	      2.08382358	      6.26663150	      2.51741468	      0.00000000
     22.62000000	    -12.24587215	     -4.60630694	      0.36401503	      2.21173567	      0.95359698	      1.03281084	     24.66981577	      6.85872941	     -3.69917195	     44.78229651	      0.78159852	     25.97962087	     -4.86971929	      0.00000000	     36.49741649	     -7.22181489	      3.29438423	    118.63522503	      2.07057529	      6.79883397	      2.80393100	      0.00000000
     22.62666667	    -12.60530816	     -4.22744052	      0.44911625	      2.21072888	      0.95611433	      1.03267529	     22.82588956	      6.45800607	     -3.60565770	     43.29539791	      0.75564724	     26.07374260	     -4.28648325	      0.00000000	     39.02037780	     -6.77634802	      2.71169334	    117.55882946	      2.05178864	      7.36297395	      3.05580138	      0.00000000
     22.63333333	    -12.77167495	     -3.92733474	      0.64054094	      2.21028284	      0.95927935	      1.03246258	     20.65629079	      5.93578905	     -4.11437429	     41.57462716	      0.72561413	     25.80781412	     -2.72630640	      0.00000000	     41.16177275	     -6.40997513	      2.14995078	    116.12833137	      2.02682174	      8.17808582	      3.66071258	      0.00000000
     22.64000000	    -13.23074383	     -3.40278375	      0.64019956	      2.20982945	      0.96251874	      1.03246044	     18.82339997	      5.39739950	     -4.00182296	     39.82120583	      0.69501115	     25.17070609	     -1.96582881	      0.00000000	     43.40225052	     -5.92818697	      1.23100478	    114.32908858	      1.99541903	      8.73365027	      3.76041872	      0.00000000
     22.64666667	    -13.27557546	     -2.87275868	      0.72455714	      2.21002664	      0.96672191	      1.03239225	     16.41749342	      4.80222436	     -4.08652460	     37.78247116	      0.65942852	     24.24363440	     -0.99241294	      0.00000000	     44.94109182	     -5.42576612	      0.31255790	    112.14803742	      1.95735250	      9.28440887	      3.85365887	      0.00000000
